<svg width="47" height="46" viewBox="0 0 47 46" fill="none" xmlns="http://www.w3.org/2000/svg">
<g clip-path="url(#clip0_1_280)">
<g clip-path="url(#clip1_1_280)">
<path fill-rule="evenodd" clip-rule="evenodd" d="M2.20319 40.6785L44.8298 40.6785L44.7968 43.6015H2.16424L2.20319 40.6785ZM35.6171 16.8861H40.9414V38.4583H35.6171V16.8861ZM28.2734 16.8861H33.414V38.4583H28.2734V16.8861ZM20.9297 16.8861H26.0703V38.4583H20.9297V16.8861ZM13.586 16.8861H18.7266V38.4583H13.586V16.8861ZM6.60943 16.8861H11.3829V38.4583H6.60943V16.8861ZM3.5841 11.5675C4.40961 11.2906 5.32755 10.8351 6.16442 10.4755L23.7721 2.97787C24.0142 2.98035 32.8248 6.80937 33.8599 7.25999C35.1468 7.82018 42.7646 11.1547 43.967 11.5732L43.9687 14.6892L3.57307 14.6892L3.58406 11.5675H3.5841ZM1.37701 10.8276V15.6928C1.37701 17.1935 2.9038 16.8862 4.40631 16.8862V38.4584H1.46881C0.739891 38.4584 3.05176e-05 38.7693 3.05176e-05 39.4682V44.7924C3.05176e-05 45.5111 0.635992 45.8022 1.37696 45.8022H45.6229C46.3639 45.8022 46.9999 45.5111 46.9999 44.7924V39.4682C46.9999 38.1288 44.506 38.4584 43.1444 38.4584V16.8862C46.7607 16.8862 46.1737 17.3351 46.1737 11.0112C46.1737 10.3347 45.845 10.0203 45.3608 9.80452L23.8671 0.638184C23.3761 0.638184 22.7719 0.976688 22.359 1.14964L18.0526 2.99356C14.3542 4.63862 10.3357 6.2597 6.61187 7.8927L2.37302 9.71242C1.88679 9.90752 1.37692 10.1738 1.37692 10.8277L1.37701 10.8276Z" fill="#496D9D"/>
<path fill-rule="evenodd" clip-rule="evenodd" d="M20.2099 9.54227C20.3461 11.4392 21.9199 12.9678 23.9628 12.8456C28.5726 12.5697 28.2243 5.51631 23.505 5.78482C21.6479 5.89047 20.0657 7.53314 20.2099 9.54227ZM22.118 9.8169C21.4711 7.45245 24.9534 6.89811 25.383 8.9235C25.8717 11.2281 22.6269 11.6774 22.118 9.8169Z" fill="#C4956A"/>
</g>
</g>
<defs>
<clipPath id="clip0_1_280">
<rect width="47" height="45" fill="white" transform="translate(0 0.720215)"/>
</clipPath>
<clipPath id="clip1_1_280">
<rect width="47" height="45.1639" fill="white" transform="translate(0 0.638184)"/>
</clipPath>
</defs>
</svg>
