<svg width="50" height="46" viewBox="0 0 50 46" fill="none" xmlns="http://www.w3.org/2000/svg">
<g clip-path="url(#clip0_1_303)">
<g clip-path="url(#clip1_1_303)">
<path fill-rule="evenodd" clip-rule="evenodd" d="M19.6161 3.98137C23.3435 4.86823 24.2566 4.15945 26.7829 6.87363C29.1848 9.45435 28.4423 11.6547 27.6972 14.9496C29.2595 15.8705 30.335 17.3049 31.9706 18.3569C32.8817 17.5926 33.7122 16.6016 35.4362 17C38.6689 17.7468 37.2721 20.5905 37.8427 21.5987C37.9715 21.8257 38.9527 22.6292 39.1695 22.7896C40.1718 23.5317 41.0677 24.6945 42.4355 24.9551C43.5196 23.6241 48.7163 17.6564 49.0638 16.8181C48.6239 15.957 48.4325 15.8521 47.7562 15.3281C47.0721 14.7978 46.7489 14.4068 46.1105 13.8937C44.138 12.3082 42.5866 14.136 41.3381 12.7802C39.5206 10.8073 43.2308 11.9975 37.8596 7.29279C33.6233 3.58217 29.9953 -0.0521277 23.3134 1.44644C21.8085 1.78381 19.6278 2.17127 19.6165 3.98137H19.6161Z" fill="#FEFEFE" stroke="#496D9D" stroke-width="1.70091" stroke-miterlimit="22.9256"/>
<path fill-rule="evenodd" clip-rule="evenodd" d="M30.6943 19.8106C29.2251 19.0959 27.9598 17.658 26.6815 16.5942C25.9716 17.0772 25.7732 17.4834 25.1458 18.1265C24.5947 18.6912 24.0824 19.0239 23.5416 19.5965L8.41299 36.1391C6.88702 37.5394 3.25154 41.713 6.48508 44.5454C7.63533 45.5528 9.75501 45.5536 11.2047 44.8197C12.6222 44.1024 13.351 42.6977 14.311 41.4813C16.4788 38.7343 30.2528 21.4629 30.6943 19.8106Z" fill="#FEFEFE" stroke="#496D9D" stroke-width="1.70091" stroke-miterlimit="22.9256"/>
<path fill-rule="evenodd" clip-rule="evenodd" d="M3.45192 2.27102C3.5889 4.09286 6.90775 5.38205 8.54487 6.60666L9.27556 7.28882C8.30574 8.94238 7.14336 10.5407 6.05377 12.1994C3.76854 15.6771 1.73378 17.5636 5.0679 17.9409C7.51869 18.2179 8.54213 18.216 10.9017 19.6699C12.5948 20.7133 15.1094 23.1814 15.9066 24.6838L18.6772 22.0307C19.3488 21.3035 20.6446 19.9149 21.0454 19.0277C19.7237 17.9052 18.0889 16.0216 17.3641 13.7817C16.424 10.875 18.9664 3.62947 11.0606 1.58141C8.61571 0.948171 5.24989 1.05188 3.45231 2.27062L3.45192 2.27102Z" fill="#FEFEFE" stroke="#C4956A" stroke-width="1.70091" stroke-miterlimit="22.9256"/>
<path fill-rule="evenodd" clip-rule="evenodd" d="M22.751 33.8704C23.0907 34.8813 27.4181 40.7128 28.35 42.0208C29.2807 43.3276 30.036 44.6731 32.0125 45.1103C34.5129 45.6633 36.1685 44.7808 37.3167 43.4638C41.1068 39.1195 35.2315 34.8446 33.2191 32.672C32.1866 31.5578 29.1683 27.6566 27.9371 27.1294C27.3731 28.2796 23.7286 32.7448 22.751 33.8704Z" fill="#FEFEFE" stroke="#C4956A" stroke-width="1.70091" stroke-miterlimit="22.9256"/>
<path fill-rule="evenodd" clip-rule="evenodd" d="M3.60847 13.063C4.35795 12.4341 6.13871 9.83339 6.42167 8.69019C5.8166 8.04599 1.81089 5.49071 0.856329 5.19287C0.787838 8.01859 1.2978 12.4818 3.60847 13.063Z" fill="#FEFEFE" stroke="#C4956A" stroke-width="1.70091" stroke-miterlimit="22.9256"/>
</g>
</g>
<defs>
<clipPath id="clip0_1_303">
<rect width="50" height="45" fill="white" transform="translate(0 0.720215)"/>
</clipPath>
<clipPath id="clip1_1_303">
<rect width="50" height="45.9393" fill="white" transform="translate(0 0.250488)"/>
</clipPath>
</defs>
</svg>
