<svg width="45" height="46" viewBox="0 0 45 46" fill="none" xmlns="http://www.w3.org/2000/svg">
<g clip-path="url(#clip0_1_289)">
<g clip-path="url(#clip1_1_289)">
<path fill-rule="evenodd" clip-rule="evenodd" d="M7.94006 22.397L7.95779 23.7958C9.83075 23.9145 12.0257 23.8147 13.9344 23.8147C17.2803 23.8147 16.7166 23.1546 16.7166 27.1056C16.7172 30.5303 16.7157 29.4345 16.7172 30.5303C16.7176 31.354 16.7024 32.0648 15.8488 32.0985C15.0047 32.1319 14.9116 31.4347 14.9154 30.6409C14.9233 28.9668 14.9051 27.2902 14.9168 25.6168L7.96199 25.6147L7.957 37.7597L22.7554 37.7606L22.8225 31.814C22.7316 29.9762 22.7966 27.998 22.7965 26.1429C22.7964 23.1265 22.9146 23.6486 25.9195 23.6486C29.6173 23.6486 33.3189 23.6323 37.0162 23.6499L37.0421 18.011C35.6114 18.0089 34.1898 18.0107 32.7681 18.0107C31.7033 18.0107 29.3843 18.4472 29.3376 17.1515C29.2881 15.7743 31.564 16.2091 32.6611 16.2091C34.1186 16.2091 35.5897 16.2287 37.0456 16.2041L37.0406 8.68077L23.3786 8.6767C23.4149 10.8781 23.3849 13.064 23.3849 15.2281C23.3849 18.725 24.0451 17.999 16.2843 18.0151C15.7136 18.0163 15.3034 17.9692 15.0691 17.6213C14.7874 17.2029 14.9298 16.6547 15.2243 16.4115C15.8478 15.8969 20.3735 16.3311 21.6048 16.176L21.6139 8.71307L7.94952 8.67578L7.94033 22.3971L7.94006 22.397Z" fill="white"/>
<path fill-rule="evenodd" clip-rule="evenodd" d="M23.137 2.53388L43.1849 2.53677L43.2059 3.45677C43.3209 13.5974 43.1828 24.3251 43.2041 34.5523C41.8497 34.7456 37.2371 34.6219 35.5503 34.6219C34.3969 34.6219 33.9124 34.6592 33.9124 35.8808L33.9137 43.8692L1.80865 43.9064C1.64765 40.3893 1.7963 33.4737 1.79565 29.5672C1.79525 27.1773 1.79565 24.7874 1.79565 22.3976C1.79565 21.5626 2.01166 19.5471 1.48916 19.1098C1.16389 18.8376 0.550639 18.8154 0.238763 19.187C-0.0570923 19.5396 0.0209095 20.2423 0.0209095 20.7925L0.0210408 44.5486C0.0220913 46.0493 1.11359 45.6796 3.44734 45.6796L34.0543 45.6803C35.1711 45.6858 35.1867 45.7327 35.7795 45.096C38.0004 42.7102 40.582 40.4292 42.7798 38.08C45.6085 35.0566 44.9733 37.205 44.9733 30.8513V2.70774C44.9733 1.93311 45.1225 1.03989 44.3971 0.818889C43.9128 0.671421 25.5603 0.761766 23.4581 0.761766C22.6979 0.761766 21.9549 0.655925 21.8067 1.47941C21.6493 2.35384 22.365 2.52928 23.137 2.53388Z" fill="#496D9D"/>
<path fill-rule="evenodd" clip-rule="evenodd" d="M7.94007 22.3971L7.94926 8.67575L21.6136 8.71304L21.6046 16.176C20.3732 16.3311 15.8475 15.8968 15.224 16.4115C14.9295 16.6547 14.7873 17.2029 15.0688 17.6213C15.303 17.9691 15.7133 18.0163 16.284 18.0151C24.0448 17.9989 23.3847 18.725 23.3847 15.228C23.3847 13.0639 23.4146 10.8781 23.3784 8.67667L37.0404 8.68074L37.0454 16.2041C35.5896 16.2288 34.1185 16.2091 32.6609 16.2091C31.5637 16.2091 29.2879 15.7743 29.3374 17.1514C29.384 18.4473 31.7029 18.0106 32.7679 18.0106C34.1895 18.0106 35.6111 18.0089 37.0418 18.011L37.016 23.6499C33.3186 23.6324 29.6171 23.6486 25.9192 23.6486C22.9143 23.6486 22.7961 23.1264 22.7963 26.1429C22.7964 27.998 22.7315 29.9762 22.8223 31.8139L22.7552 37.7606L7.95674 37.7597L7.96173 25.6146L14.9165 25.6167C14.9049 27.2902 14.9232 28.9667 14.9152 30.6409C14.9115 31.4347 15.0045 32.1318 15.8486 32.0985C16.7021 32.0647 16.7174 31.3539 16.717 30.5303C16.7141 28.4521 16.7335 24.6917 16.5885 24.3113C16.2512 23.757 15.3031 23.8147 13.934 23.8147C12.0254 23.8147 9.83036 23.9145 7.9574 23.7958L7.93967 22.397L7.94007 22.3971ZM24.6356 34.3805C24.6262 35.5641 24.7665 37.8073 24.5938 38.8479C24.2168 39.7228 23.6788 39.5643 22.7092 39.5616L7.94151 39.562C7.0567 39.5668 6.30229 39.6641 6.27944 38.8328C6.00762 38.4924 6.16612 36.4977 6.16612 35.8809L6.16375 8.37477C6.15876 7.04861 6.41299 6.8913 7.7255 6.89917L35.0151 6.90088C38.8818 6.89944 38.8432 6.47043 38.83 9.1284L38.8327 21.3275C38.8327 25.3198 39.2579 25.4254 36.8344 25.4204C32.7768 25.4123 28.6822 25.4803 24.5979 25.4153C24.6259 28.127 24.6553 31.9146 24.6355 34.3805H24.6356Z" fill="#C4956A"/>
<path fill-rule="evenodd" clip-rule="evenodd" d="M1.81429 2.5689C2.50987 2.45859 11.2646 2.53489 12.757 2.53489C13.5551 2.53489 15.8135 2.7576 16.26 2.24731C16.5875 1.87306 16.5 1.28043 16.1859 0.994025C15.7258 0.57447 11.5784 0.761989 10.8309 0.761989C8.36959 0.761989 5.90847 0.761989 3.44721 0.761989C-0.746376 0.761989 0.020773 0.481235 0.020773 4.74113C0.020773 7.20738 0.0302277 9.66103 0.0199851 12.1253C0.0176214 12.7066 -0.0807345 13.3003 0.354973 13.6173C0.728961 13.8894 1.31503 13.8452 1.59368 13.4846C2.0546 12.8883 1.62349 4.60929 1.81429 2.5689Z" fill="#496D9D"/>
<path fill-rule="evenodd" clip-rule="evenodd" d="M35.713 42.522C36.1557 42.3309 41.4911 37.0132 41.8815 36.4358L35.7174 36.416L35.713 42.5221V42.522Z" fill="white"/>
<path fill-rule="evenodd" clip-rule="evenodd" d="M-0.024135 15.9863C-0.133521 16.9716 0.651749 17.3459 1.32448 17.068C2.75136 15.9689 0.61485 14.2299 -0.024135 15.9863Z" fill="#496D9D"/>
</g>
</g>
<defs>
<clipPath id="clip0_1_289">
<rect width="45" height="45" fill="white" transform="translate(0 0.720215)"/>
</clipPath>
<clipPath id="clip1_1_289">
<rect width="45.0688" height="45" fill="white" transform="translate(-0.0343781 0.720215)"/>
</clipPath>
</defs>
</svg>
