<svg width="53" height="46" viewBox="0 0 53 46" fill="none" xmlns="http://www.w3.org/2000/svg">
<g clip-path="url(#clip0_1_314)">
<g clip-path="url(#clip1_1_314)">
<path fill-rule="evenodd" clip-rule="evenodd" d="M20.6178 35.1775C20.3842 34.9777 19.3288 31.7531 19.0408 31.0204C18.6084 29.923 18.7457 30.1433 19.0275 29.6432C19.4374 28.9157 20.0737 27.8818 20.0512 26.8182C20.0358 26.1183 19.8175 25.8539 19.3749 25.5834C18.1545 24.8375 15.7526 25.0363 15.5067 26.6634C15.353 27.683 16.0826 28.8593 16.4935 29.4957C16.8931 30.1125 16.8039 30.2324 16.5683 30.9405C16.3726 31.5297 15.396 34.3281 15.1327 34.8035C15.0774 34.9029 14.9892 35.032 14.9575 35.1212L14.8837 34.9829C14.8673 34.9244 14.857 34.8855 14.8406 34.8292L14.5507 33.8967C14.4185 33.4776 14.2883 33.0851 14.1551 32.6701C13.8867 31.834 13.6121 31.0429 13.3477 30.214L12.1683 26.5118C12.0535 26.1398 11.906 25.6183 11.7553 25.2801C11.1477 25.3242 9.63526 26.2095 9.14341 26.4862C7.37173 27.4811 6.01915 28.1892 4.27514 29.2733C2.42968 30.4199 1.45008 31.3565 0.868064 33.5432C0.610869 34.5095 0.673374 36.1028 0.673374 37.1747C0.67235 38.435 0.62214 39.6913 0.621115 40.9527C0.620091 41.59 0.621115 42.2284 0.621115 42.8657C0.621115 43.5021 0.600622 44.1732 0.62419 44.8044L34.9275 44.8096C34.9572 44.1937 34.9316 43.5133 34.9316 42.8903C34.9316 42.2448 34.9326 41.5982 34.9316 40.9527C34.9306 40.1114 34.9275 35.9829 34.8466 35.2657C34.8117 34.9634 34.8353 34.6416 34.8189 34.3281C34.8046 34.035 34.7595 33.7471 34.698 33.4714C34.4767 32.4847 33.8946 31.5143 33.3864 30.9323C33.1108 30.6177 32.7408 30.3144 32.3791 30.0254C32.0266 29.7426 31.6485 29.4885 31.2479 29.219C29.9363 28.3357 27.7845 27.2444 26.3345 26.4288C26.0691 26.2792 23.9316 25.152 23.7923 25.1377C23.7585 25.442 23.1631 27.2362 23.0227 27.6594C22.4909 29.2641 21.9458 31.0552 21.4283 32.6855C21.332 32.9878 20.6916 35.0915 20.6168 35.1816L20.6178 35.1775Z" fill="#FEFEFE" stroke="#496D9D" stroke-width="1.82599" stroke-miterlimit="22.9256"/>
<path fill-rule="evenodd" clip-rule="evenodd" d="M16.8531 1.96856C15.5241 2.1489 14.482 2.36306 13.3426 3.08137C12.3896 3.68286 11.6723 4.44727 11.0831 5.45966C9.84531 7.5869 9.58197 10.4898 9.74592 13.2995C9.90987 16.0928 10.664 18.6094 12.0566 20.2663C12.7452 21.0851 13.4901 21.7419 14.7105 22.2481C15.8838 22.7338 17.3112 22.9274 18.718 22.7512C21.4212 22.412 23.3732 20.9232 24.3528 19.1474C25.3252 17.3849 25.5967 15.6389 25.7545 13.5956C25.8078 12.905 25.9103 12.1068 25.9031 11.412C25.8878 10.0021 25.7423 8.57572 25.3641 7.30306C24.4245 4.13781 22.287 2.48705 19.0214 2.06488C18.4383 1.98905 17.431 1.89171 16.8531 1.96958V1.96856Z" fill="#FEFEFE" stroke="#496D9D" stroke-width="1.82599" stroke-miterlimit="22.9256"/>
<path fill-rule="evenodd" clip-rule="evenodd" d="M40.7549 28.6603C40.4875 28.1766 40.1053 26.9992 39.9013 26.4244L39.2855 24.7101C39.221 24.4478 39.3829 24.3361 39.4822 24.167C39.8173 23.5983 40.3256 22.7222 40.3102 21.885C40.2989 21.3061 40.138 21.1227 39.7712 20.886C38.8346 20.2804 36.8047 20.4269 36.6244 21.7652C36.5086 22.6208 37.0927 23.5184 37.4308 24.0604C37.7557 24.582 37.6768 24.6496 37.4841 25.2306C37.353 25.6251 37.2177 26.0125 37.0814 26.4008C36.9482 26.7779 36.8068 27.157 36.6603 27.5249C36.5117 27.8979 36.3949 28.3006 36.1715 28.6008C36.1336 28.5609 36.1469 28.5773 36.1254 28.5096L35.5311 26.6232C35.32 25.9469 35.0915 25.3075 34.8763 24.6271C34.4541 23.2971 34.0279 21.9496 33.5913 20.639C33.0923 20.6319 30.5767 22.0931 30.0388 22.4015C29.7672 22.5583 29.4783 22.7109 29.1873 22.8749C28.8184 23.0819 26.9196 24.2039 26.7219 24.4119L28.5489 25.3618C30.3195 26.3363 32.0635 27.365 33.6559 28.5947C33.9213 28.7996 34.1529 29.0097 34.4019 29.2228C35.2001 29.9052 35.6714 30.6707 36.1172 31.7015C36.6715 32.9865 36.9011 34.917 36.94 36.4509L52.3676 36.4612C52.4045 35.8638 52.3728 34.0655 52.3717 33.341C52.3707 32.3122 52.3574 31.2793 52.343 30.2506C52.3369 29.77 52.3492 29.2115 52.3031 28.7412C52.2519 28.2104 52.3031 27.818 52.1842 27.2882C51.9998 26.4654 51.5622 25.7276 51.1278 25.2286C50.0232 23.9621 47.1469 22.5214 45.4316 21.5776C45.0883 21.3881 44.7583 21.221 44.4028 21.0346L43.3586 20.5171L40.7539 28.6582L40.7549 28.6603Z" fill="#FEFEFE" stroke="#C4956A" stroke-width="1.82599" stroke-miterlimit="22.9256"/>
<path fill-rule="evenodd" clip-rule="evenodd" d="M37.7864 1.66001C36.7217 1.77683 35.7514 2.08116 35.0054 2.56788C32.4078 4.25861 31.9662 7.65236 32.168 10.75C32.3207 13.1016 32.8699 14.8518 34.0319 16.2986C36.4799 19.3461 41.923 18.8655 43.8545 15.3426C44.6292 13.9306 44.8331 12.5176 44.9581 10.8965C45.0012 10.337 45.0821 9.71095 45.0729 9.15557C45.0258 6.01389 44.1917 3.10482 41.052 2.06476C40.1995 1.78195 38.7567 1.55447 37.7853 1.66104L37.7864 1.66001Z" fill="#FEFEFE" stroke="#C4956A" stroke-width="1.82599" stroke-miterlimit="22.9256"/>
</g>
</g>
<defs>
<clipPath id="clip0_1_314">
<rect width="53" height="45" fill="white" transform="translate(0 0.720215)"/>
</clipPath>
<clipPath id="clip1_1_314">
<rect width="53.5984" height="45" fill="white" transform="translate(-0.299194 0.720215)"/>
</clipPath>
</defs>
</svg>
